# xmcd
#
# Track frame offsets:
#	150
#	14867
#	28257
#	42542
#	56910
#	72320
#	88357
#	103620
#	119432
#	135207
#
# Disc length: 2007 seconds
#
# Revision: 0
# Processed by: cddbd v1.5.2PL0 Copyright (c) Steve Scherf et al.
# Submitted via: audiograbber 1.83.01
#
DISCID=9707d50a
DTITLE=Restless Heart - Matters of the heart
DYEAR=1994
DGENRE=Country
TTITLE0=In this little town
TTITLE1=Love train
TTITLE2=Mind over matters of the heart
TTITLE3=Baby needs new shoes
TTITLE4=Hold you now
TTITLE5=She's still in love
TTITLE6=You're a stronger man than I am
TTITLE7=Hometown boy
TTITLE8=Sweet whiskey lies
TTITLE9=I'd cross the line
EXTD=
EXTT0=
EXTT1=
EXTT2=
EXTT3=
EXTT4=
EXTT5=
EXTT6=
EXTT7=
EXTT8=
EXTT9=
PLAYORDER=
